<svg width="703" height="473" viewBox="0 0 703 473" fill="none" xmlns="http://www.w3.org/2000/svg">
<rect width="703" height="473" fill="white"/>
<g clip-path="url(#clip0)">
<path d="M463.989 308.433C463.991 309.09 463.865 309.741 463.615 310.349C463.366 310.957 463 311.509 462.537 311.976C462.074 312.442 461.523 312.812 460.917 313.066C460.31 313.319 459.66 313.451 459.002 313.453H240.13C239.473 313.451 238.822 313.319 238.215 313.065C237.608 312.811 237.058 312.44 236.594 311.974C236.131 311.507 235.765 310.954 235.516 310.345C235.267 309.737 235.141 309.085 235.144 308.428V159.025C235.141 158.368 235.268 157.717 235.517 157.109C235.767 156.501 236.133 155.948 236.596 155.482C237.059 155.016 237.61 154.646 238.216 154.392C238.823 154.139 239.473 154.007 240.13 154.005H459.002C459.66 154.007 460.311 154.139 460.918 154.393C461.525 154.647 462.075 155.017 462.539 155.484C463.002 155.951 463.368 156.504 463.617 157.113C463.866 157.721 463.992 158.373 463.989 159.03" fill="url(#paint0_linear)"/>
<path d="M461.414 305.989C461.414 307.277 460.902 308.512 459.99 309.423C459.079 310.334 457.842 310.846 456.553 310.846H242.736C241.447 310.846 240.211 310.334 239.299 309.423C238.388 308.512 237.876 307.277 237.876 305.989V161.553C237.876 160.265 238.388 159.029 239.299 158.118C240.211 157.208 241.447 156.696 242.736 156.696H456.553C457.842 156.696 459.079 157.208 459.99 158.118C460.902 159.029 461.414 160.265 461.414 161.553" fill="white"/>
<path d="M450.767 163.604H248.738C247.455 163.604 246.415 164.643 246.415 165.924V302.344C246.415 303.626 247.455 304.665 248.738 304.665H450.767C452.049 304.665 453.089 303.626 453.089 302.344V165.924C453.089 164.643 452.049 163.604 450.767 163.604Z" fill="url(#paint1_linear)"/>
<path d="M448.008 166.85H251.283C250.001 166.85 248.961 167.889 248.961 169.171V298.371C248.961 299.652 250.001 300.692 251.283 300.692H448.008C449.291 300.692 450.331 299.652 450.331 298.371V169.171C450.331 167.889 449.291 166.85 448.008 166.85Z" fill="white"/>
<path d="M237.768 299.464L293.984 235.09C294.954 233.98 296.134 233.072 297.456 232.418C298.777 231.765 300.216 231.379 301.687 231.283C303.159 231.187 304.635 231.383 306.031 231.859C307.426 232.335 308.714 233.082 309.82 234.057L325.566 247.938C327.576 249.71 330.155 250.702 332.836 250.735C335.516 250.767 338.119 249.837 340.171 248.113L388.28 207.695C390.496 205.836 393.347 204.906 396.234 205.102C399.121 205.298 401.82 206.603 403.764 208.744L462.812 273.688C464.454 275.494 465.46 277.787 465.676 280.218L467.954 305.837C468.091 307.383 467.905 308.941 467.408 310.411C466.91 311.882 466.111 313.232 465.063 314.377C464.014 315.523 462.738 316.437 461.317 317.062C459.895 317.688 458.359 318.011 456.805 318.01H246.195C243.284 318.011 240.487 316.878 238.398 314.852C236.31 312.826 235.093 310.066 235.007 307.159V307.159C234.923 304.338 235.909 301.589 237.768 299.464V299.464Z" fill="#6C63FF"/>
<path d="M273.207 200.772C280.095 200.772 285.678 195.193 285.678 188.31C285.678 181.427 280.095 175.848 273.207 175.848C266.32 175.848 260.736 181.427 260.736 188.31C260.736 195.193 266.32 200.772 273.207 200.772Z" fill="#FF5252"/>
</g>
<defs>
<linearGradient id="paint0_linear" x1="349.566" y1="313.458" x2="349.566" y2="154" gradientUnits="userSpaceOnUse">
<stop stop-color="#808080" stop-opacity="0.25"/>
<stop offset="0.54" stop-color="#808080" stop-opacity="0.12"/>
<stop offset="1" stop-color="#808080" stop-opacity="0.1"/>
</linearGradient>
<linearGradient id="paint1_linear" x1="90614.6" y1="81204.6" x2="90614.6" y2="5329.26" gradientUnits="userSpaceOnUse">
<stop stop-color="#808080" stop-opacity="0.25"/>
<stop offset="0.54" stop-color="#808080" stop-opacity="0.12"/>
<stop offset="1" stop-color="#808080" stop-opacity="0.1"/>
</linearGradient>
<clipPath id="clip0">
<rect x="235" y="154" width="233" height="164" fill="white"/>
</clipPath>
</defs>
</svg>
